<?xml version="1.0" encoding="UTF-8"?>
<svg id="Camada_1" data-name="Camada 1" xmlns="http://www.w3.org/2000/svg" xmlns:xlink="http://www.w3.org/1999/xlink" viewBox="0 0 1080 1080">
  <defs>
    <style>
      .cls-1 {
        fill: url(#Gradiente_sem_nome_16-2);
      }

      .cls-2 {
        fill: url(#Gradiente_sem_nome_16-8);
      }

      .cls-3 {
        clip-path: url(#clippath-6);
      }

      .cls-4 {
        clip-path: url(#clippath-7);
      }

      .cls-5 {
        clip-path: url(#clippath-4);
      }

      .cls-6 {
        fill: url(#Gradiente_sem_nome_16-11);
      }

      .cls-7 {
        clip-path: url(#clippath-9);
      }

      .cls-8 {
        clip-path: url(#clippath-10);
      }

      .cls-9 {
        fill: url(#Gradiente_sem_nome_16-5);
      }

      .cls-10 {
        fill: url(#Gradiente_sem_nome_16-6);
      }

      .cls-11 {
        fill: url(#Gradiente_sem_nome_16-10);
      }

      .cls-12 {
        fill: #1e1a29;
      }

      .cls-13 {
        clip-path: url(#clippath-11);
      }

      .cls-14 {
        fill: none;
      }

      .cls-15 {
        clip-path: url(#clippath-1);
      }

      .cls-16 {
        fill: url(#Gradiente_sem_nome_16-13);
      }

      .cls-17 {
        clip-path: url(#clippath-5);
      }

      .cls-18 {
        clip-path: url(#clippath-8);
      }

      .cls-19 {
        clip-path: url(#clippath-3);
      }

      .cls-20 {
        fill: url(#Gradiente_sem_nome_16-12);
      }

      .cls-21 {
        clip-path: url(#clippath-12);
      }

      .cls-22 {
        clip-path: url(#clippath-14);
      }

      .cls-23 {
        fill: url(#Gradiente_sem_nome_16-4);
      }

      .cls-24 {
        fill: url(#Gradiente_sem_nome_16);
      }

      .cls-25 {
        fill: url(#Gradiente_sem_nome_16-15);
      }

      .cls-26 {
        fill: url(#Gradiente_sem_nome_16-7);
      }

      .cls-27 {
        fill: url(#Gradiente_sem_nome_16-9);
      }

      .cls-28 {
        clip-path: url(#clippath-2);
      }

      .cls-29 {
        fill: url(#Gradiente_sem_nome_16-3);
      }

      .cls-30 {
        clip-path: url(#clippath-13);
      }

      .cls-31 {
        fill: url(#Gradiente_sem_nome_16-14);
      }

      .cls-32 {
        clip-path: url(#clippath);
      }
    </style>
    <clipPath id="clippath">
      <path class="cls-14" d="M524.87,474.89c.03,3.8.33,7.83.93,12.53,9.79-1.63,19.36-4.57,27.26-8.4-1.63-2.22-3.02-4.83-4.11-7.73-2.53-.31-4.99-.48-7.33-.48-6.87,0-12.5,1.37-16.75,4.08"/>
    </clipPath>
    <radialGradient id="Gradiente_sem_nome_16" data-name="Gradiente sem nome 16" cx="-2060.18" cy="1579.79" fx="-2060.18" fy="1579.79" r="8.38" gradientTransform="translate(95347.525 73304.8584) scale(46.0558 -46.0558)" gradientUnits="userSpaceOnUse">
      <stop offset="0" stop-color="#94bee6"/>
      <stop offset=".12" stop-color="#90bce5"/>
      <stop offset=".21" stop-color="#86b9e3"/>
      <stop offset=".29" stop-color="#75b2e0"/>
      <stop offset=".37" stop-color="#5ea9dc"/>
      <stop offset=".45" stop-color="#3f9ed7"/>
      <stop offset=".5" stop-color="#2795d3"/>
      <stop offset="1" stop-color="#094a85"/>
    </radialGradient>
    <clipPath id="clippath-1">
      <path class="cls-14" d="M477.58,432.27c-29.23,20.45-28.66,51.43-22.67,74.4.14-.08.29-.16.45-.23,20.28-10.64,41-15.56,55.14-17.82,1.14-7.63,4.2-13.43,9.03-17.29.17-16.31,5.44-27.87,16.52-36.35,3.23-2.5,7.09-4.33,11.45-5.51.22-1.73.45-3.37.69-4.93l.03-.26c-6.15-1.2-19.73-3.76-36.15-6.03-12.61,2.3-24.84,7.26-34.51,14.02"/>
    </clipPath>
    <radialGradient id="Gradiente_sem_nome_16-2" data-name="Gradiente sem nome 16" cx="-2059.88" cy="1579.91" fx="-2059.88" fy="1579.91" r="8.38" gradientTransform="translate(94728.6131 72845.3097) scale(45.7621 -45.7621)" xlink:href="#Gradiente_sem_nome_16"/>
    <clipPath id="clippath-2">
      <path class="cls-14" d="M561.42,479.79c-.36.2-.73.4-1.11.63.38.29.78.58,1.16.84,2.25,1.47,4.85,2.2,7.71,2.2s6.15-.75,9.55-2.31c-3.9-1.94-7.94-3.7-12.03-5.2-1.88,1.58-3.67,2.87-5.29,3.85"/>
    </clipPath>
    <radialGradient id="Gradiente_sem_nome_16-3" data-name="Gradiente sem nome 16" cx="-2060.26" cy="1579.75" fx="-2060.26" fy="1579.75" r="8.38" gradientTransform="translate(95489.6831 73410.4605) scale(46.1233 -46.1233)" xlink:href="#Gradiente_sem_nome_16"/>
    <clipPath id="clippath-3">
      <path class="cls-14" d="M568.32,294.6c50.28,9.08,109.83,38.54,117.45,92.53,17.28-26.95,31.75-64.88,22.61-94.17-5.05-16.14-16.69-27.9-34.63-34.98-13.27-5.22-26.25-7.87-38.59-7.87-30.69,0-56.74,17.4-66.84,44.49"/>
    </clipPath>
    <radialGradient id="Gradiente_sem_nome_16-4" data-name="Gradiente sem nome 16" cx="-2060" cy="1579.88" fx="-2060" fy="1579.88" r="8.38" gradientTransform="translate(94956.2531 73014.2706) scale(45.8701 -45.8701)" xlink:href="#Gradiente_sem_nome_16"/>
    <clipPath id="clippath-4">
      <path class="cls-14" d="M516.82,485.73c-.26.92-.49,1.87-.65,2.85,1.52-.1,3.04-.23,4.57-.41-.4-3.16-.72-5.97-.9-8.56-1.33,1.78-2.33,3.84-3.02,6.13"/>
    </clipPath>
    <radialGradient id="Gradiente_sem_nome_16-5" data-name="Gradiente sem nome 16" cx="-2060.02" cy="1572.09" fx="-2060.02" fy="1572.09" r="8.38" gradientTransform="translate(94968.7462 142033.8158) scale(45.8761 -90.0003)" xlink:href="#Gradiente_sem_nome_16"/>
    <clipPath id="clippath-5">
      <path class="cls-14" d="M554.31,472.18c.75,1.74,1.68,3.35,2.73,4.76,1.63-.93,3.18-1.87,4.62-2.85-.02,0-.06,0-.1-.03-2.3-.73-4.77-1.37-7.25-1.89Z"/>
    </clipPath>
    <radialGradient id="Gradiente_sem_nome_16-6" data-name="Gradiente sem nome 16" cx="-2060.11" cy="1579.83" fx="-2060.11" fy="1579.83" r="8.38" gradientTransform="translate(95179.2443 73179.8788) scale(45.976 -45.976)" xlink:href="#Gradiente_sem_nome_16"/>
    <clipPath id="clippath-6">
      <path class="cls-14" d="M515.79,492.9c-.03,3.59.74,8.25,4.06,12.1,1.19,1.38,2.51,2.57,4.01,3.55-.42-2.86-.87-5.78-1.37-8.74-.38-2.4-.76-4.84-1.14-7.28-1.97.18-3.83.3-5.56.37"/>
    </clipPath>
    <radialGradient id="Gradiente_sem_nome_16-7" data-name="Gradiente sem nome 16" cx="-2059.87" cy="1572.03" fx="-2059.87" fy="1572.03" r="8.38" gradientTransform="translate(94714.3461 142948.6449) scale(45.7553 -90.5852)" xlink:href="#Gradiente_sem_nome_16"/>
    <clipPath id="clippath-7">
      <path class="cls-14" d="M528.66,452.81c-1.88,4.77-3.05,9.78-3.52,15.29,3.69-1.52,8.04-2.29,12.97-2.29,2.92,0,6.08.28,9.42.81-2.51-10.42-1.73-22.62-.69-31.74-8.73,3.96-15.18,10.31-18.18,17.92"/>
    </clipPath>
    <radialGradient id="Gradiente_sem_nome_16-8" data-name="Gradiente sem nome 16" cx="-2059.99" cy="1574.7" fx="-2059.99" fy="1574.7" r="8.38" gradientTransform="translate(94951.5193 107667.4508) scale(45.8679 -68.0269)" xlink:href="#Gradiente_sem_nome_16"/>
    <clipPath id="clippath-8">
      <path class="cls-14" d="M564.85,307.91c-6.33,41.39-9.98,98.99-10.81,113.09,15.52,2.5,41.64,9.27,51.88,26.95,7.02,12.19-6.33,25.02-12.39,29.98-1.67,1.36-3.4,2.62-5.15,3.78,2.99,1.63,5.89,3.33,8.46,4.99,11.81-11.99,48.31-49.42,74.29-79.8,3.42-3.99,6.78-8.3,10-12.81-2.63-54.64-60.77-83.9-114.85-93.2-.49,1.93-.96,3.98-1.43,7.04"/>
    </clipPath>
    <radialGradient id="Gradiente_sem_nome_16-9" data-name="Gradiente sem nome 16" cx="-2060.08" cy="1574.83" fx="-2060.08" fy="1574.83" r="8.38" gradientTransform="translate(95127.6414 106346.5517) scale(45.9515 -67.1823)" xlink:href="#Gradiente_sem_nome_16"/>
    <clipPath id="clippath-9">
      <path class="cls-14" d="M539.82,516.92c-1.11,0-2.25-.03-3.35-.12-2.04-.12-4.1-.47-6.15-1.01,3.64,16.26,8.69,32.39,15.09,47.95,13.56,3.85,27.62,5.92,40.74,5.92,22.26,0,52.14-5.75,68.84-32.88-21.22-16.84-46.35-35.8-57.09-43.84-21.26,15.9-40.81,23.98-58.08,23.98"/>
    </clipPath>
    <radialGradient id="Gradiente_sem_nome_16-10" data-name="Gradiente sem nome 16" cx="-2060.09" cy="1579.83" fx="-2060.09" fy="1579.83" r="8.38" gradientTransform="translate(95150.7806 73158.7869) scale(45.9625 -45.9625)" xlink:href="#Gradiente_sem_nome_16"/>
    <clipPath id="clippath-10">
      <path class="cls-14" d="M587.42,574.24c-12.83,0-26.56-1.87-39.9-5.45,14.55,33.65,33.88,60.21,49.55,68.01,8.17,4.08,16.33,6.5,24.33,7.21h10.06c26.14-2.36,42.58-22.87,48.89-40.53,7.87-22.04,2.97-43.74-12.79-56.62-2.6-2.14-5.35-4.34-8.16-6.61-17.8,28.04-48.87,33.98-71.98,33.98"/>
    </clipPath>
    <radialGradient id="Gradiente_sem_nome_16-11" data-name="Gradiente sem nome 16" cx="-2060.06" cy="1579.84" fx="-2060.06" fy="1579.84" r="8.38" gradientTransform="translate(95084.6282 73109.668) scale(45.9311 -45.9311)" xlink:href="#Gradiente_sem_nome_16"/>
    <clipPath id="clippath-11">
      <path class="cls-14" d="M432.89,415.47c-22.2,3.7-42.37,16.16-53.95,33.42-8.96,13.35-12.13,28.49-8.94,42.64,5.27,23.36,27.24,26.84,39.88,26.84s27.06-3.34,40.35-9.44c-5.69-20.55-10.03-57.03,21.13-78.82,8.44-5.92,17.85-10.52,27.54-13.57-15.78-1.81-29.81-2.73-41.86-2.73-9.29,0-17.43.54-24.15,1.65"/>
    </clipPath>
    <radialGradient id="Gradiente_sem_nome_16-12" data-name="Gradiente sem nome 16" cx="-2059.97" cy="1579.88" fx="-2059.97" fy="1579.88" r="8.38" gradientTransform="translate(94902.3568 72974.3248) scale(45.8446 -45.8446)" xlink:href="#Gradiente_sem_nome_16"/>
    <clipPath id="clippath-12">
      <path class="cls-14" d="M526.42,491.94c.39,2.7.84,5.38,1.28,8.07.58,3.61,1.2,7.34,1.72,11.04,2.34.69,4.99,1.06,7.86,1.06,4.17,0,8.83-.7,14.65-2.21,14.35-3.68,27.94-10.33,41.48-20.32-2.82-1.84-5.84-3.63-9.14-5.47-5.14,2.7-9.99,4.06-14.45,4.06-3.81,0-7.3-1.01-10.34-2.97-1.1-.72-2.12-1.53-3.23-2.57-9.06,4.6-19.33,7.8-29.82,9.32"/>
    </clipPath>
    <radialGradient id="Gradiente_sem_nome_16-13" data-name="Gradiente sem nome 16" cx="-2060" cy="1579.86" fx="-2060" fy="1579.86" r="8.38" gradientTransform="translate(94974.6839 73028.0406) scale(45.8789 -45.8789)" xlink:href="#Gradiente_sem_nome_16"/>
    <clipPath id="clippath-13">
      <path class="cls-14" d="M552.57,433.07c-1.3,9.95-2.53,23.88.25,34.6,3.97.92,8.14,2.15,12.46,3.67,8.08-6.69,12.23-14.5,12.26-23.29,0-4.02-1.3-7.38-3.93-10.01-3.47-3.49-9.12-5.5-15.48-5.5-1.89,0-3.76.16-5.56.53"/>
    </clipPath>
    <radialGradient id="Gradiente_sem_nome_16-14" data-name="Gradiente sem nome 16" cx="-2060.05" cy="1575.24" fx="-2060.05" fy="1575.24" r="8.38" gradientTransform="translate(95046.2935 102529.045) scale(45.9129 -64.7415)" xlink:href="#Gradiente_sem_nome_16"/>
    <clipPath id="clippath-14">
      <path class="cls-14" d="M553.21,428.36c1.24-.13,2.48-.19,3.73-.19,7.25,0,14.17,2.23,19.49,6.28,4.28,3.24,6.57,7.45,6.78,12.46.42,9.29-6.36,19.29-13.32,26.14,4.32,1.68,8.71,3.66,13.12,5.84,3.61-2.18,6.43-4.54,8.21-6.21,10.93-10.16,13.91-18.51,8.85-24.89-11.15-14.05-31.14-19.9-46.44-22.32l-.42,2.89Z"/>
    </clipPath>
    <radialGradient id="Gradiente_sem_nome_16-15" data-name="Gradiente sem nome 16" cx="-2060.16" cy="1579.36" fx="-2060.16" fy="1579.36" r="8.38" gradientTransform="translate(95293.8858 75346.8501) scale(46.0304 -47.3615)" xlink:href="#Gradiente_sem_nome_16"/>
  </defs>
  <g>
    <path class="cls-12" d="M346.33,717.25c0,2.41-.32,4.7-.97,6.81-2.31,6.25-5.75,9.37-12.16,9.37-9.75,0-13.46-8.35-13.46-15.7,0-2.28.23-4.34.67-6.19,1.7-7.11,5.72-10.65,12.05-10.65h.49c2.07,0,3.77.33,5.08.97,5.53,2.45,8.29,7.52,8.29,15.21v.17ZM346.33,679.01l-.35.31v21.75c-3.47-4.45-8.11-6.68-13.96-6.68-14.16,0-19.89,12.15-19.89,21.58,0,17.25,9.17,23.96,20.83,23.96s20.34-6.34,20.34-27.06v-33.55l-.32-.31h-6.64Z"/>
    <path class="cls-12" d="M730.41,694.19c-3.84,0-7.49,1.11-10.99,3.34-6.27,3.66-9.39,11.5-9.39,23.55v17.39l.3.3h6.56l.32-.3v-17.39c0-2.84.15-5.39.47-7.64,1.48-7.74,6.42-11.61,14.83-11.61.31,0,.48-.1.48-.31v-7.03l-.36-.31h-2.21Z"/>
    <path class="cls-12" d="M379.37,694.19c-3.82,0-7.48,1.11-10.98,3.34-6.26,3.66-9.4,11.5-9.4,23.55v17.39l.31.3h6.57l.3-.3v-17.39c0-2.84.16-5.39.47-7.64,1.48-7.71,6.38-11.58,14.73-11.61h.32l.25-.31v-7.03l-.35-.31h-2.21Z"/>
    <path class="cls-12" d="M403.92,733.39c-7.14,0-13.26-5.28-13.26-16.4,0-6.57,2.3-16.4,13.57-16.4,7.04,0,12.94,5.84,12.94,16.4s-6.11,16.4-13.25,16.4M404.41,694.25c-17.61,0-21.22,13.63-21.22,22.74,0,15.41,9.57,22.75,20.73,22.75s20.72-7.72,20.72-22.75-9.22-22.74-20.23-22.74"/>
    <path class="cls-12" d="M458.01,694.19l-12.07,37.07c-.21-.12-12.9-37.07-12.9-37.07h-7.83l-.17.17,5.73,15.34c7.08,19.29,10.7,28.99,10.91,29.07h8.5l15.53-44.42-.09-.17h-7.61Z"/>
    <polygon class="cls-12" points="817.93 694.11 817.63 694.4 817.63 738.47 817.93 738.78 824.46 738.78 824.77 738.47 824.77 694.4 824.46 694.11 817.93 694.11"/>
    <polygon class="cls-12" points="817.93 678.89 817.63 679.2 817.63 685.06 817.93 685.37 824.46 685.37 824.77 685.06 824.77 679.2 824.46 678.89 817.93 678.89"/>
    <polygon class="cls-12" points="841.41 677.9 834.82 677.9 834.51 678.24 834.51 738.47 834.82 738.78 841.41 738.78 841.76 738.47 841.76 678.24 841.41 677.9"/>
    <polygon class="cls-12" points="281.75 673.02 281.39 673.37 281.39 701.18 247.1 701.18 247.1 673.37 246.76 673.02 238.6 673.02 238.24 673.37 238.24 738.43 238.6 738.77 246.76 738.77 247.1 738.43 247.1 708.7 281.39 708.7 281.39 738.43 281.75 738.77 290.08 738.77 290.44 738.43 290.44 673.37 290.08 673.02 281.75 673.02"/>
    <polygon class="cls-12" points="299.07 694.11 298.78 694.4 298.78 738.47 299.07 738.78 305.59 738.78 305.9 738.47 305.9 694.4 305.59 694.11 299.07 694.11"/>
    <polygon class="cls-12" points="299.07 678.89 298.78 679.2 298.78 685.06 299.07 685.37 305.59 685.37 305.9 685.06 305.9 679.2 305.59 678.89 299.07 678.89"/>
    <polygon class="cls-12" points="470.91 694.11 470.61 694.4 470.61 738.47 470.91 738.78 477.43 738.78 477.73 738.47 477.73 694.4 477.43 694.11 470.91 694.11"/>
    <polygon class="cls-12" points="470.91 678.89 470.61 679.2 470.61 685.06 470.91 685.37 477.43 685.37 477.73 685.06 477.73 679.2 477.43 678.89 470.91 678.89"/>
    <path class="cls-12" d="M512.85,721.5c0,3.07-.32,4.3-1.61,6.07-2.57,3.52-6.48,5.87-11.47,5.87-6.13-.16-8.21-2.99-8.21-6.02,0-4.28,2.98-7.78,8.15-8.6,7.61-.95,12.02-1.89,13.15-2.78v5.46ZM505.62,694.25c-10.57-.21-14.07,2.68-18.74,7.36-.05.04-.19.2-.19.2l.03.39.11.12,3.94,3.88.07.07h.41s.19-.18.21-.21c1.3-1.33,2.71-2.48,4.22-3.44,2.15-1.4,4.72-2.12,7.76-2.12,6.41,0,9.61,2.27,9.61,6.81,0,1.63-1.74,4.61-12.56,6.07-10.62,1.43-18.12,6.74-16.22,17.03,1.3,6.92,6.85,9.29,13.63,9.29,2.41,0,5.04-.41,7.92-1.26,2.58-.84,5.2-2.91,7.04-4.25v4.24l.31.31h6.52l.3-.31v-32.81c0-1.33-.15-2.53-.46-3.57-1.72-5.18-6.56-7.64-13.9-7.77"/>
    <path class="cls-12" d="M763.49,721.5c0,3.07-.34,4.3-1.63,6.07-2.55,3.52-6.47,5.87-11.47,5.87-6.12-.16-8.2-2.99-8.2-6.02,0-4.28,2.98-7.78,8.14-8.6,7.62-.95,12.02-1.89,13.16-2.78v5.46ZM756.24,694.25c-10.56-.21-14.07,2.68-18.73,7.36-.05.04-.21.2-.21.2l.05.39.11.12,3.94,3.88.06.07h.41s.19-.18.21-.21c1.31-1.33,2.72-2.48,4.23-3.44,2.14-1.4,4.71-2.12,7.75-2.12,6.4,0,9.61,2.27,9.61,6.81,0,1.63-1.73,4.61-12.56,6.07-10.62,1.43-18.13,6.74-16.21,17.03,1.29,6.92,6.85,9.29,13.63,9.29,2.4,0,5.04-.41,7.92-1.26,2.58-.84,5.19-2.91,7.05-4.25v4.24l.3.31h6.52l.31-.31v-32.81c0-1.33-.15-2.53-.46-3.57-1.73-5.18-6.56-7.64-13.91-7.77"/>
    <path class="cls-12" d="M546.11,713.2c-9.24-1.52-12.19-3.49-12.34-7.21-.15-3.54,4.63-5.43,9.03-5.43,5.73,0,7.81,1.64,9.4,4.49h6.99l.17-.17s-.88-10.69-15.77-10.69c-4.6,0-6.03.33-8.09.99-6.14,2.27-9.45,5.79-9.22,11.64.27,6.46,3.45,9.32,11.18,11.18,11.68,2.81,16.75,4.92,16.6,8.76-.22,5.68-5.06,6.76-10.3,6.76-4.18,0-7.35-1.12-9.52-3.38h-7.77l-.18.49c2.64,6.18,8.36,9.26,17.18,9.26,3.32,0,6.37-.47,9.15-1.43,6.02-2.24,9.04-6.37,9.04-12.33,0-3.56-1.09-10.53-15.56-12.92"/>
    <path class="cls-12" d="M624.32,735.09c-5.22,0-9.72-3.88-9.72-12,0-4.81,1.69-12.01,9.95-12.01,5.17,0,9.49,4.28,9.49,12.01s-4.48,12-9.72,12M624.68,706.44c-12.91,0-15.56,9.98-15.56,16.65,0,11.27,7.02,16.64,15.2,16.64s15.2-5.64,15.2-16.64-6.76-16.65-14.84-16.65"/>
    <path class="cls-12" d="M795.27,713.23c-9.25-1.52-12.2-3.49-12.34-7.2-.15-3.53,4.63-5.42,9.03-5.42,5.74,0,7.81,1.65,9.39,4.48h7l.17-.17s-.88-10.67-15.77-10.67c-4.6,0-6.03.33-8.08.98-6.14,2.27-9.45,5.78-9.22,11.62.26,6.44,3.44,9.29,11.18,11.16,11.67,2.8,16.74,4.9,16.59,8.72-.21,5.67-5.04,6.75-10.3,6.75-4.16,0-7.33-1.12-9.52-3.38h-7.77l-.17.49c2.64,6.16,8.35,9.24,17.16,9.24,3.33,0,6.39-.46,9.17-1.41,6.02-2.26,9.04-6.36,9.04-12.32,0-3.55-1.1-10.5-15.55-12.89"/>
    <path class="cls-12" d="M685.86,731.52h-21.6v-21.25h19.47c9.39,0,12.68,4.45,12.68,11.05s-5.2,10.21-10.55,10.21M664.27,683.54h17.51c5.21,0,12.17.74,12.17,9.74s-7.53,9.9-15.31,9.9h-14.37v-19.64ZM693.13,705.8v-.18c6.17-2.75,9.25-7.31,9.25-13.65,0-4.05-1.41-15.51-19.77-15.51h-20.77c-3.98,0-5.95,1.71-5.95,5.12v56.85l.34.34h27.87c4.8,0,8.42-.67,10.86-2.01,6.72-3.61,10.07-8.94,10.07-15.98,0-3.76-1.38-12.97-11.9-14.99"/>
    <path class="cls-12" d="M600.81,723.3c0,1.76-.23,3.4-.71,4.94-1.67,4.54-4.18,6.79-8.85,6.79-7.1,0-9.81-6.05-9.81-11.37,0-1.65.17-3.14.51-4.49,1.24-5.15,4.16-7.72,8.76-7.72h.36c1.5,0,2.74.24,3.71.7,4.02,1.77,6.03,5.45,6.03,11.02v.13ZM600.81,695.58l-.25.23v15.76c-2.52-3.23-5.91-4.85-10.16-4.85-10.32,0-14.49,8.81-14.49,15.65,0,12.5,6.67,17.37,15.17,17.37s14.8-4.6,14.8-19.62v-24.31l-.23-.23h-4.83Z"/>
  </g>
  <g>
    <g class="cls-32">
      <rect class="cls-24" x="524.87" y="470.81" width="28.19" height="16.61"/>
    </g>
    <g class="cls-15">
      <rect class="cls-1" x="448.36" y="418.26" width="99.88" height="88.42"/>
    </g>
    <g class="cls-28">
      <rect class="cls-29" x="560.32" y="475.94" width="18.43" height="7.52"/>
    </g>
    <g class="cls-19">
      <rect class="cls-23" x="568.32" y="250.12" width="149.2" height="137.02"/>
    </g>
    <g class="cls-5">
      <rect class="cls-9" x="516.18" y="479.6" width="4.58" height="8.97"/>
    </g>
    <g class="cls-17">
      <rect class="cls-10" x="554.31" y="472.18" width="7.35" height="4.76"/>
    </g>
    <g class="cls-3">
      <rect class="cls-26" x="515.77" y="492.53" width="8.09" height="16.02"/>
    </g>
    <g class="cls-4">
      <rect class="cls-2" x="525.14" y="434.89" width="22.39" height="33.22"/>
    </g>
    <g class="cls-18">
      <rect class="cls-27" x="554.04" y="300.87" width="127.09" height="185.82"/>
    </g>
    <g class="cls-7">
      <rect class="cls-11" x="530.32" y="492.94" width="124.67" height="76.72"/>
    </g>
    <g class="cls-8">
      <rect class="cls-6" x="547.52" y="540.27" width="140.7" height="103.76"/>
    </g>
    <g class="cls-13">
      <rect class="cls-20" x="366.81" y="413.82" width="132.09" height="104.55"/>
    </g>
    <g class="cls-21">
      <rect class="cls-16" x="526.42" y="482.62" width="66.98" height="29.49"/>
    </g>
    <g class="cls-30">
      <rect class="cls-31" x="550.04" y="432.54" width="27.51" height="38.8"/>
    </g>
    <g class="cls-22">
      <rect class="cls-25" x="553.21" y="425.47" width="51.92" height="53.43"/>
    </g>
  </g>
</svg>