<?xml version="1.0" encoding="UTF-8"?>
<svg id="Camada_1" data-name="Camada 1" xmlns="http://www.w3.org/2000/svg" xmlns:xlink="http://www.w3.org/1999/xlink" viewBox="0 0 1080 1080">
  <defs>
    <style>
      .cls-1 {
        fill: none;
      }

      .cls-2 {
        fill: #223563;
      }

      .cls-3 {
        clip-path: url(#clippath);
      }
    </style>
    <clipPath id="clippath">
      <rect class="cls-1" x="255.45" y="310.08" width="569.1" height="440.17"/>
    </clipPath>
  </defs>
  <g class="cls-3">
    <g>
      <path class="cls-2" d="M501.76,723.12c0,3.56-1.33,6.67-3.56,8.89-2.22,2.22-5.78,3.56-8.89,3.56h-19.12c-7.11,0-12.89-5.78-12.89-12.89v-32.9c0-7.11,5.78-12.89,12.89-12.89h19.12c7.11,0,12.89,5.78,12.89,12.89v32.9l-.44.44ZM488.87,663.54h-19.12c-15.12,0-27.12,12-27.12,27.12v32.9c0,14.67,12,26.68,27.12,27.12h19.12c7.11,0,14.23-2.67,19.12-8,5.34-4.89,8-12,8-19.12v-32.9c0-14.67-12-27.12-27.12-27.12"/>
      <path class="cls-2" d="M292.8,663.54h-12c-13.78,0-25.34,11.56-25.34,25.34s2.67,12.89,7.56,17.78c4.89,4.89,11.12,7.56,17.78,7.56h12c3.11,0,5.78,1.33,8,3.11,2.22,2.22,3.11,4.89,3.11,7.56,0,6.22-4.89,11.12-11.12,11.12h-12c-6.22,0-11.12-4.89-11.12-11.12v-3.11h-14.23v3.11c0,13.78,11.56,25.34,25.34,25.34h12c13.78,0,25.34-11.12,25.34-25.34s-2.67-12.89-7.56-17.78c-4.89-4.89-11.12-7.56-17.78-7.56h-12c-3.11,0-5.78-1.33-8-3.11-2.22-2.22-3.11-4.89-3.11-7.56,0-6.22,4.89-11.12,11.12-11.12h12c6.22,0,11.12,4.89,11.12,11.12v3.11h14.23v-3.11c0-13.78-11.56-25.34-25.34-25.34Z"/>
      <path class="cls-2" d="M799.21,663.54h-12c-13.78,0-25.34,11.56-25.34,25.34s2.67,12.89,7.56,17.78c4.89,4.89,11.12,7.56,17.78,7.56h12c3.11,0,5.78,1.33,8,3.11,2.22,2.22,3.11,4.89,3.11,7.56,0,6.22-4.89,11.12-11.12,11.12h-12c-6.22,0-11.12-4.89-11.12-11.12v-3.11h-14.23v3.11c0,13.78,11.56,25.34,25.34,25.34h12c13.78,0,25.34-11.12,25.34-25.34s-2.67-12.89-7.56-17.78c-4.89-4.89-11.12-7.56-17.78-7.56h-12c-3.11,0-5.78-1.33-8-3.11-2.22-2.22-3.11-4.89-3.11-7.56,0-6.22,4.89-11.12,11.12-11.12h12c6.22,0,11.12,4.89,11.12,11.12v3.11h14.23v-3.11c0-13.78-11.56-25.34-25.34-25.34"/>
      <path class="cls-2" d="M344.82,663.54h-14.23v86.7h14.23v-86.7Z"/>
      <path class="cls-2" d="M647.15,703.11h-25.34v-25.34h24.9c7.11,0,12.89,5.78,12.89,12.89s-5.78,12.45-12.45,12.89v-.44ZM647.15,663.54h-39.57v86.7h14.23v-32.46h30.23c1.78,0,4,.44,5.34,1.78,1.33,1.33,2.22,3.11,2.22,5.34v25.34h14.23v-25.34c0-5.78-2.22-11.12-6.22-15.56,0,0-.44-.44-.89-.89,4.45-4.89,7.11-11.12,7.11-18.23,0-14.67-12-27.12-27.12-27.12"/>
      <path class="cls-2" d="M415.95,728.01l-41.35-64.47h-16.9v86.7h14.23v-64.47l41.79,64.47h16.9v-86.7h-14.23v64.47h-.44Z"/>
      <path class="cls-2" d="M707.17,721.79l13.78-37.35,13.78,37.35h-27.57ZM713.4,663.54l-31.57,86.7h15.12l5.34-14.23h37.79l5.34,14.23h15.12l-31.57-86.7h-15.56Z"/>
      <path class="cls-2" d="M569.79,736.02h-27.12v-21.79h27.12c6.22,0,11.12,4.89,11.12,11.12s-4.89,11.12-11.12,11.12v-.44ZM542.67,677.77h24.45c6.22,0,11.12,4.89,11.12,11.12s-4.89,11.12-11.12,11.12h-24.45v-22.23ZM585.8,705.78c4-4.45,6.67-10.23,6.67-16.9,0-13.78-11.56-25.34-25.34-25.34h-38.68v86.25h41.35c13.78,0,25.34-11.12,25.34-25.34s-3.56-14.67-9.34-19.12"/>
      <path class="cls-2" d="M693.39,520.38c.89,2.22.44,5.34-.89,9.34-1.78,4.45-4.45,7.11-7.56,8.45l-69.8,29.34-19.12-48.46-3.11,57.8-131.16,55.58,3.11-57.8,119.6-50.69c1.33-.44,2.67-1.78,2.67-3.56.44-1.78.44-3.11,0-4.89l-9.34-23.56c0-.89-1.33-2.22-3.11-2.67-1.78-.89-3.11-.89-4.45,0l-116.04,48.91c-3.56,1.33-7.56,1.33-12.45-.89-4.89-1.78-8-4-9.34-7.11l-43.57-108.93c-1.33-4-1.33-8.45,1.33-13.34,2.22-4.89,5.34-8.45,9.34-9.78l66.25-28.01,23.56,59.58-2.67-68.47,121.82-51.13,1.33,65.36-109.37,46.24c-2.22.89-3.11,2.22-3.56,4-.89,1.78-.89,3.56,0,4.89l8.89,22.23c0,.89,1.33,1.78,3.11,2.22,1.78.44,3.11.44,4.45,0l120.49-50.69c2.67-1.33,6.22-.44,10.23,2.22,4,2.67,6.67,5.78,7.56,8.45l42.24,105.37h-.44Z"/>
    </g>
  </g>
</svg>